<?xml version="1.0" encoding="UTF-8"?>
<svg id="Camada_1" xmlns="http://www.w3.org/2000/svg" viewBox="0 0 300 64">
  <defs>
    <style>
      .cls-1 {
        fill: #fff;
      }
    </style>
  </defs>
  <path class="cls-1" d="M101.87,37.99v3.81c-.93-1.3-1.68-2.33-2.23-3.09l-14.18-19.18h-3.95v29.64h4.36v-22.27c.93,1.3,1.68,2.33,2.23,3.09l14.18,19.18h3.94v-29.64h-4.34v18.46Z"/>
  <path class="cls-1" d="M124.34,28.62c-1.54-.93-3.32-1.41-5.12-1.38-1.43-.02-2.85.25-4.17.78-1.24.52-2.36,1.29-3.28,2.27-.95,1.02-1.68,2.22-2.14,3.53-.51,1.48-.76,3.03-.74,4.59,0,2.23.45,4.19,1.36,5.86.86,1.63,2.14,2.99,3.72,3.94,1.66.97,3.55,1.46,5.46,1.42,1.23,0,2.44-.18,3.62-.53,1.18-.36,2.27-.95,3.22-1.74,1.03-.87,1.88-1.92,2.52-3.11l-3.22-1.99c-.4.81-.94,1.53-1.61,2.14-.6.54-1.31.94-2.08,1.19-.8.24-1.62.37-2.46.36-1.14.02-2.27-.28-3.26-.85-.99-.6-1.78-1.48-2.26-2.52-.47-1-.74-2.09-.79-3.2h16.01c.03-.2.04-.4.04-.59v-.55c0-2.2-.43-4.13-1.29-5.78-.8-1.58-2.03-2.92-3.54-3.85ZM114.71,32.72c.5-.65,1.17-1.16,1.93-1.48.8-.33,1.67-.5,2.54-.49,1.6-.04,3.13.64,4.17,1.86.78.89,1.28,2.12,1.5,3.68h-11.6c.06-.39.15-.78.26-1.16.24-.87.65-1.69,1.21-2.41h0Z"/>
  <path class="cls-1" d="M147.47,28.64c-1.72-.95-3.66-1.43-5.63-1.4-1.48-.01-2.94.26-4.32.8-1.3.52-2.49,1.31-3.47,2.31-1,1.02-1.78,2.23-2.29,3.55-.55,1.44-.82,2.97-.8,4.51,0,2.2.47,4.15,1.42,5.84.91,1.65,2.25,3.02,3.89,3.96,3.06,1.66,6.69,1.87,9.93.59,1.3-.53,2.48-1.32,3.48-2.31,1-1.01,1.78-2.21,2.29-3.53.55-1.45.82-3,.8-4.55,0-2.23-.47-4.19-1.42-5.86-.91-1.64-2.25-3-3.88-3.92ZM148.03,41.55c-.3.87-.78,1.67-1.4,2.35-.59.63-1.31,1.13-2.12,1.46-.85.34-1.75.52-2.67.51-1.18.01-2.35-.29-3.37-.89-1.02-.61-1.84-1.5-2.37-2.56-.58-1.12-.87-2.45-.87-4-.02-1.06.15-2.12.49-3.13.3-.86.77-1.65,1.38-2.33.58-.64,1.31-1.14,2.12-1.46.84-.33,1.73-.49,2.63-.49,1.21-.02,2.4.29,3.45.89,1.02.6,1.84,1.48,2.38,2.54.58,1.1.87,2.43.87,3.98.01,1.07-.16,2.13-.52,3.13h0Z"/>
  <path class="cls-1" d="M170.02,28.62c-1.54-.93-3.32-1.41-5.12-1.38-1.43-.02-2.85.25-4.17.78-1.24.52-2.36,1.29-3.28,2.27-.95,1.02-1.68,2.22-2.14,3.53-.51,1.48-.76,3.03-.74,4.59,0,2.23.45,4.19,1.36,5.86.86,1.63,2.14,2.99,3.72,3.94,1.65.96,3.54,1.45,5.45,1.41,1.23,0,2.45-.18,3.62-.53,1.18-.36,2.27-.95,3.22-1.74,1.03-.87,1.88-1.93,2.52-3.11l-3.22-1.99c-.4.81-.95,1.53-1.61,2.14-.6.54-1.31.94-2.08,1.19-.8.24-1.62.37-2.46.36-1.14.02-2.27-.27-3.26-.85-.99-.6-1.77-1.48-2.25-2.52-.47-1-.74-2.09-.79-3.2h16.01c.03-.2.04-.4.04-.59v-.55c0-2.2-.43-4.13-1.29-5.78-.8-1.58-2.03-2.92-3.54-3.85ZM160.39,32.72c.5-.65,1.17-1.16,1.92-1.48.81-.33,1.67-.5,2.54-.49,1.6-.04,3.13.64,4.17,1.86.78.89,1.28,2.12,1.49,3.68h-11.6c.06-.39.15-.78.26-1.16.24-.87.65-1.69,1.21-2.41h0Z"/>
  <path class="cls-1" d="M192.12,28.26c-1.26-.7-2.67-1.05-4.11-1.02-1.46,0-2.89.4-4.13,1.16-.95.59-1.72,1.44-2.22,2.44v-3.18h-4.15v21.51h4.15v-12.74c0-1.72.5-3.07,1.5-4.04,1-.97,2.29-1.46,3.87-1.46,1.41,0,2.56.48,3.43,1.44s1.31,2.26,1.31,3.9v12.91h4.19v-13.6c.04-1.54-.32-3.06-1.04-4.42-.65-1.21-1.62-2.21-2.82-2.9Z"/>
  <path class="cls-1" d="M214.09,28.62c-1.54-.93-3.32-1.41-5.12-1.38-1.43-.02-2.85.25-4.17.78-1.24.52-2.36,1.29-3.28,2.27-.95,1.02-1.68,2.22-2.14,3.53-.51,1.48-.76,3.03-.74,4.59,0,2.23.45,4.19,1.35,5.86.86,1.63,2.14,2.99,3.72,3.94,1.66.97,3.55,1.46,5.46,1.42,1.23,0,2.45-.18,3.62-.53,1.18-.36,2.27-.95,3.22-1.74,1.03-.87,1.88-1.93,2.52-3.11l-3.22-1.99c-.4.81-.94,1.53-1.61,2.14-.6.54-1.31.94-2.07,1.19-.8.24-1.62.37-2.46.36-1.14.02-2.27-.27-3.26-.85-.99-.6-1.78-1.48-2.27-2.53-.47-1-.74-2.09-.79-3.19h16.01c.03-.2.04-.4.04-.59v-.55c0-2.2-.43-4.13-1.29-5.78-.8-1.58-2.02-2.92-3.53-3.85ZM204.46,32.72c.5-.65,1.17-1.16,1.93-1.48.8-.33,1.67-.5,2.54-.49,1.6-.04,3.13.64,4.17,1.86.78.89,1.28,2.12,1.5,3.68h-11.6c.06-.39.15-.78.26-1.16.24-.87.65-1.69,1.21-2.41h0Z"/>
  <path class="cls-1" d="M228.16,28.21c-1,.65-1.81,1.64-2.43,2.96v-3.51h-4.15v21.51h4.15v-11.47c0-1.83.47-3.3,1.4-4.4.87-1.07,2.18-1.68,3.55-1.65h2.12v-4.4h-1.23c-1.21-.02-2.39.32-3.41.97Z"/>
  <path class="cls-1" d="M249.31,31.27c-.15-.26-.3-.51-.47-.76-.67-.99-1.56-1.81-2.6-2.39-1.06-.6-2.35-.89-3.87-.89-1.31-.01-2.6.25-3.8.76-1.15.49-2.19,1.22-3.05,2.14-.87.94-1.56,2.04-2.01,3.24-.49,1.3-.73,2.68-.71,4.07-.03,1.82.41,3.62,1.27,5.23.8,1.49,1.99,2.75,3.43,3.64,1.46.9,3.15,1.36,4.87,1.34,1.52,0,2.82-.3,3.87-.91,1.04-.59,1.93-1.41,2.6-2.39.17-.24.32-.49.47-.74v3.03c0,1.41-.3,2.59-.89,3.53-.57.92-1.39,1.67-2.37,2.14-1.02.49-2.13.73-3.26.72-1.31.02-2.6-.33-3.73-.99-1.13-.69-2.07-1.64-2.75-2.77l-2.92,2.33c.63,1.13,1.48,2.12,2.5,2.92.97.75,2.07,1.32,3.24,1.67,3.03.88,6.28.65,9.16-.66,1.58-.77,2.91-1.98,3.81-3.49.93-1.54,1.4-3.41,1.4-5.61v-18.76h-4.19v3.61ZM248.59,40.77c-.51.94-1.26,1.73-2.18,2.29-1.98,1.1-4.39,1.1-6.37,0-.93-.55-1.69-1.34-2.2-2.29-.55-1.02-.82-2.17-.8-3.32-.02-1.17.25-2.33.8-3.36.51-.95,1.27-1.74,2.2-2.29,1.98-1.1,4.39-1.1,6.37,0,.92.55,1.67,1.34,2.18,2.29.55,1.03.83,2.19.8,3.36.02,1.16-.26,2.3-.8,3.32Z"/>
  <path class="cls-1" d="M261.5,19.3c-.56-.49-1.29-.76-2.03-.74-.74-.02-1.46.25-2.01.74-.56.51-.86,1.25-.83,2.01-.03.75.27,1.47.83,1.97.55.49,1.27.76,2.01.74.75.02,1.47-.25,2.03-.74.57-.49.88-1.22.85-1.97.04-.76-.28-1.5-.85-2.01Z"/>
  <rect class="cls-1" x="257.39" y="27.66" width="4.15" height="21.51"/>
  <path class="cls-1" d="M282.81,31.9c-.5-1.03-1.23-1.94-2.14-2.65-.91-.7-1.94-1.22-3.05-1.52-1.18-.33-2.4-.49-3.62-.49-1.83-.03-3.64.42-5.25,1.29-1.57.88-2.79,2.26-3.47,3.92l3.26,1.87c.4-1.01,1.1-1.87,2.01-2.46.92-.6,2.04-.89,3.36-.89.95-.01,1.89.16,2.78.51.82.33,1.53.91,2.01,1.65.51.76.76,1.77.76,3.01v2.4c-.15-.16-.3-.31-.47-.45-1.33-1.16-3.25-1.74-5.76-1.74-1.5-.02-3,.24-4.4.76-1.24.44-2.32,1.23-3.13,2.26-1.52,2.16-1.53,5.05-.02,7.22.79,1.02,1.85,1.8,3.05,2.27,1.37.54,2.83.8,4.3.78,2.54,0,4.5-.6,5.88-1.8.28-.24.54-.51.76-.81v2.14h3.94v-13.43c.03-1.33-.25-2.65-.82-3.85ZM278.07,45.53c-1.01.6-2.28.89-3.8.89s-2.85-.3-3.87-.89c-1.03-.6-1.54-1.46-1.54-2.58-.05-1.11.56-2.14,1.54-2.65,1.03-.58,2.32-.87,3.87-.87,1.52,0,2.79.3,3.8.89.97.51,1.56,1.53,1.53,2.63,0,1.13-.51,1.99-1.53,2.58h0Z"/>
  <path class="cls-1" d="M42.46,38.64c0,3.41,1.34,6.68,3.74,9.11,4.63,4.63,10.91,4.62,14.92,2.44,4.9-2.66,15.94-10.64,4.48-43.75,0,15.63-23.14,17.22-23.14,32.2Z"/>
  <path class="cls-1" d="M53,20.12c-.76-4.1-1.98-8.29-3.8-13.68,0,15.63-23.14,17.22-23.14,32.2,0,3.41,1.34,6.68,3.73,9.11,4.63,4.63,10.96,4.62,14.92,2.44-9.2-9.81-5.96-21.17,8.29-30.07Z"/>
  <path class="cls-1" d="M36.59,20.12c-.76-4.1-1.98-8.29-3.8-13.68,0,15.63-23.14,17.22-23.14,32.2,0,7.68,6.22,11.07,6.22,11.07-.97,4.11-1.17,8.36-.6,12.54l2.97-.49c-1.45-5.05-.56-10.55-.47-11.09,3.8,1.52,7.72,1.07,10.53-.47-9.21-9.82-5.96-21.17,8.29-30.07Z"/>
</svg>