<?xml version="1.0" encoding="UTF-8"?>
<svg id="Camada_1" xmlns="http://www.w3.org/2000/svg" viewBox="0 0 300 64">
  <defs>
    <style>
      .cls-1 {
        fill: #fff;
        fill-rule: evenodd;
      }
    </style>
  </defs>
  <path class="cls-1" d="M122.73,52.41c.05,2.8-.05,5.6-.33,8.21h8.11c.79-11.56-1.82-26.95-3.36-32.77h-6.11c-4.62,5.83-15.39,21.21-20.75,32.77h8.25c1.12-2.61,2.52-5.41,4.01-8.21h10.16ZM114.52,48.72c3.68-6.38,7.13-11.61,7.13-11.61,0,0,.7,5.22.93,11.61h-8.07ZM157.04,60.61h5.17l8.62-32.77h-7.32l-5.13,19.39-9.37-19.39h-5.17l-8.67,32.77h7.27l5.17-19.35,9.42,19.35ZM188.7,52.41c.09,2.8-.05,5.6-.28,8.21h8.07c.74-11.56-1.87-26.95-3.36-32.77h-6.11c-4.57,5.83-15.34,21.21-20.7,32.77h8.21c1.12-2.61,2.57-5.41,4.06-8.21h10.11ZM180.49,48.72c3.68-6.38,7.18-11.61,7.18-11.61,0,0,.65,5.22.93,11.61h-8.11ZM210.75,60.61l7.74-29.14h8.21l.93-3.64h-24.38l-.93,3.64h8.25l-7.65,29.14h7.83,0ZM231.96,57.02l2.98-11.33h9.56l.98-3.68h-9.51l2.75-10.54h11.19l.93-3.64h-19.07l-8.63,32.77h19.58l.93-3.59h-11.7ZM256.58,57.02l7.65-29.19h-7.83l-8.67,32.77h19.35l.93-3.59h-11.42Z"/>
  <path class="cls-1" d="M48.55,27.46c9.14,0,16.6,7.46,16.6,16.6s-7.46,16.55-16.6,16.55-16.55-7.41-16.55-16.55,7.41-16.6,16.55-16.6h0Z"/>
  <path class="cls-1" d="M95.64,60.47c9.47-22.15,7.37-44.24-6.39-53.19-13.05-8.49-32.68-2.61-48.58,12.96,10.4-8.02,22.19-10.21,29.42-4.38,9.19,7.37,7.18,25.04-4.47,39.44-1.52,1.84-3.14,3.6-4.85,5.27l34.87-.09h0Z"/>
</svg>