<?xml version="1.0" encoding="UTF-8"?>
<svg id="Camada_2" xmlns="http://www.w3.org/2000/svg" viewBox="0 0 803.37 529.67">
  <defs>
    <style>
      .cls-1 {
        fill: #2a2d96;
      }

      .cls-2 {
        fill: #00aef1;
      }
    </style>
  </defs>
  <g id="Camada_1-2" data-name="Camada_1">
    <g>
      <path class="cls-2" d="M5.44,205.52V33.93h22.94v171.59H5.44Z"/>
      <path class="cls-2" d="M97.45,116.86V33.93h22.94v171.59h-22.94v-34.17l-24.62-78.15v112.32h-22.94V33.93h22.94l24.62,82.93Z"/>
      <path class="cls-2" d="M185.87,80.06v-15.06c0-6.85-3.35-10.28-10.04-10.28h-3.58c-6.53,0-9.8,3.43-9.8,10.28v28.44c0,3.19.63,5.34,1.91,6.45,1.27,1.12,3.35,2.55,6.21,4.3l21.75,11.71c4.78,2.71,8.16,4.82,10.16,6.33,1.99,1.52,3.54,3.35,4.66,5.5,1.11,2.15,1.67,6.25,1.67,12.31v36.56c0,19.28-9.24,28.92-27.72,28.92h-14.1c-18.32,0-27.48-10.51-27.48-31.54v-8.6h22.94v9.32c0,6.69,3.42,10.04,10.28,10.04h4.06c6.05,0,9.08-3.35,9.08-10.04v-29.16c0-3.18-.64-5.33-1.91-6.45-1.28-1.11-3.35-2.55-6.21-4.3l-21.75-12.19c-4.78-2.55-8.24-4.7-10.39-6.45-2.15-1.75-3.7-4.02-4.66-6.81-.96-2.78-1.43-6.41-1.43-10.87v-35.13c0-19.6,9.16-29.39,27.48-29.39h14.34c18.32,0,27.48,9.8,27.48,29.39v16.73h-22.94Z"/>
      <path class="cls-2" d="M264.49,54.73v150.8h-22.94V54.73h-21.99v-20.79h66.91v20.79h-21.99Z"/>
      <path class="cls-2" d="M321.36,205.52h-22.94V63.33c0-19.6,9.16-29.39,27.48-29.39h17.21c18.32,0,27.48,9.8,27.48,29.39v142.19h-22.94v-62.85h-26.29v62.85ZM347.65,121.88v-57.12c0-6.69-3.35-10.04-10.04-10.04h-6.21c-6.69,0-10.04,3.35-10.04,10.04v57.12h26.29Z"/>
      <path class="cls-2" d="M445.39,205.52h-54.49V33.93h22.94v150.8h31.55v20.79Z"/>
      <path class="cls-2" d="M480.28,205.52h-22.94V63.33c0-19.6,9.16-29.39,27.48-29.39h17.21c18.32,0,27.48,9.8,27.48,29.39v142.19h-22.94v-62.85h-26.29v62.85ZM506.57,121.88v-57.12c0-6.69-3.35-10.04-10.04-10.04h-6.21c-6.69,0-10.04,3.35-10.04,10.04v57.12h26.29Z"/>
      <path class="cls-2" d="M618.4,165.37v10.99c0,19.44-9.16,29.16-27.48,29.16h-14.82c-18.32,0-27.48-9.72-27.48-29.16V63.09c0-19.44,9.16-29.15,27.48-29.15h14.82c18.32,0,27.48,9.72,27.48,29.15v19.36h-22.94v-17.68c0-6.69-3.43-10.04-10.28-10.04h-4.54c-6.06,0-9.08,3.35-9.08,10.04v109.93c0,6.69,3.03,10.04,9.08,10.04h5.74c6.05,0,9.08-3.35,9.08-10.04v-9.32h22.94ZM572.52,238.26h10.99c3.98,0,5.97-1.91,5.97-5.74v-3.34c0-4.46-1.99-6.69-5.97-6.69h-9.56v-23.18h12.43v13.62h2.15c8.76,0,13.14,4.62,13.14,13.86v9.08c0,8.6-4.46,12.98-13.38,13.14h-15.77v-10.75Z"/>
      <path class="cls-2" d="M658.07,205.52h-22.94V63.33c0-19.6,9.16-29.39,27.48-29.39h17.21c18.32,0,27.48,9.8,27.48,29.39v142.19h-22.94v-62.85h-26.29v62.85ZM696.07,0c-.16,7.01-2.07,12.31-5.74,15.89-3.67,3.59-7.89,5.46-12.67,5.62-1.75,0-3.35-.24-4.78-.72-1.43-.48-2.75-.99-3.94-1.55-1.2-.56-2.31-1.11-3.35-1.67-1.04-.56-2.19-.84-3.47-.84-3.03,0-4.94,1.99-5.74,5.97h-11.71c0-6.85,1.67-11.95,5.02-15.29s7.33-5.18,11.95-5.5c1.59,0,3.03.24,4.3.72,1.27.48,2.55,1.04,3.82,1.67,1.27.64,2.55,1.2,3.82,1.67,1.27.48,2.63.72,4.06.72,1.59-.32,2.95-.99,4.06-2.03,1.11-1.03,1.75-2.59,1.91-4.66h12.43ZM684.36,121.88v-57.12c0-6.69-3.35-10.04-10.04-10.04h-6.21c-6.69,0-10.04,3.35-10.04,10.04v57.12h26.29Z"/>
      <path class="cls-2" d="M754.14,205.52c-18.48,0-27.72-9.72-27.72-29.16V63.33c0-19.6,9.16-29.39,27.48-29.39h21.99c18.32,0,27.48,9.8,27.48,29.39v113.04c0,19.44-9.24,29.16-27.72,29.16h-21.51ZM759.64,184.73h11.71c6.05,0,9.08-3.35,9.08-10.04v-109.93c0-6.69-3.43-10.04-10.28-10.04h-10.76c-6.69,0-10.04,3.35-10.04,10.04v109.93c0,6.69,3.42,10.04,10.28,10.04Z"/>
      <g>
        <path class="cls-1" d="M64.44,418.9v-36.64h61.49v147.41H46.75c-31.17,0-46.75-16.99-46.75-50.96v-199.64c0-34.54,15.58-51.8,46.75-51.8h27.8c34.25,0,51.38,17.55,51.38,52.65v32.85h-40.43v-26.96c0-14.6-5.76-21.9-17.27-21.9h-10.11c-11.79,0-17.69,7.3-17.69,21.9v185.32c0,14.6,5.9,21.9,17.69,21.9h27.38v-74.13h-21.06Z"/>
        <path class="cls-1" d="M158.78,227.26h79.18c30.88,0,46.33,17.27,46.33,51.8v74.55c0,26.4-8,43.1-24.01,50.12l28.22,125.93h-38.33l-26.53-122.14h-24.43v122.14h-40.43V227.26ZM199.21,372.99h26.53c12.07,0,18.11-7.3,18.11-21.9v-65.28c0-14.6-6.04-21.9-18.11-21.9h-26.53v109.08Z"/>
        <path class="cls-1" d="M356.31,529.67h-40.43v-250.6c0-34.54,16.14-51.8,48.43-51.8h30.32c32.29,0,48.44,17.27,48.44,51.8v250.6h-40.43v-110.77h-46.33v110.77ZM380.31,207.47h-28.64l19.37-49.7h37.06l-27.8,49.7ZM402.64,382.26v-100.66c0-11.79-5.9-17.69-17.69-17.69h-10.95c-11.79,0-17.69,5.9-17.69,17.69v100.66h46.33Z"/>
        <path class="cls-1" d="M543.3,263.91v265.76h-40.43v-265.76h-38.75v-36.64h117.93v36.64h-38.75Z"/>
        <path class="cls-1" d="M605.21,529.67V227.26h40.43v302.4h-40.43Z"/>
        <path class="cls-1" d="M761.04,308.55v-26.53c0-12.07-5.9-18.11-17.69-18.11h-6.32c-11.52,0-17.27,6.04-17.27,18.11v50.12c0,5.62,1.12,9.41,3.37,11.37,2.24,1.97,5.9,4.49,10.95,7.58l38.33,20.64c8.42,4.78,14.39,8.5,17.9,11.16,3.51,2.67,6.24,5.9,8.21,9.69,1.96,3.79,2.95,11.02,2.95,21.69v64.44c0,33.98-16.29,50.96-48.86,50.96h-24.85c-32.29,0-48.44-18.53-48.44-55.59v-15.16h40.43v16.43c0,11.79,6.04,17.69,18.11,17.69h7.16c10.67,0,16-5.9,16-17.69v-51.38c0-5.61-1.13-9.4-3.37-11.37-2.25-1.96-5.9-4.49-10.95-7.58l-38.33-21.48c-8.42-4.49-14.53-8.28-18.32-11.37-3.79-3.09-6.53-7.09-8.21-12-1.68-4.91-2.53-11.3-2.53-19.16v-61.91c0-34.54,16.14-51.8,48.44-51.8h25.27c32.29,0,48.44,17.27,48.44,51.8v29.48h-40.43Z"/>
      </g>
    </g>
  </g>
</svg>