<?xml version="1.0" encoding="UTF-8"?>
<svg id="Camada_1" xmlns="http://www.w3.org/2000/svg" viewBox="0 0 2673.78 1321.78">
  <defs>
    <style>
      .cls-1 {
        fill: #2f3192;
      }

      .cls-2 {
        fill: #00adee;
      }

      .cls-3 {
        fill: #fdfefe;
      }
    </style>
  </defs>
  <path class="cls-3" d="M168.98,1061.81c0-315.44,0-630.89-.09-946.33,0-3.75.84-4.59,4.59-4.59,775.6.1,1551.21.1,2326.81,0,3.75,0,4.6.84,4.59,4.59-.11,166.14-.09,332.27-.09,498.41-20.82-.04-41.63-.03-62.45-.16-2.76-.02-3.68.7-3.74,3.59-.37,16.64-.84,33.29-2.56,49.86-.26,2.53.28,3.58,3.08,3.57,19.49-.09,38.97-.11,58.46.01,2.88.02,3.81-1.13,3.97-3.72.38-6.15.64-12.31,1.36-18.42,1.07-9.22.11-18.56,1.89-27.72,0,195.13-.01,390.26.09,585.4,0,3.75-.84,4.59-4.59,4.59-375.14-.1-750.27-.09-1125.41-.09,3.25-1.93,6.99-1.32,10.48-1.89,25.05-4.06,41.5-20.91,43.61-46.05,1.61-19.09,1.36-38.31.26-57.39-1.45-25.16-13.87-40.72-35.94-47.27-12.81-3.81-25.93-4.37-39.04-1.88-29.28,5.55-44.3,23.77-44.41,53.63-.06,16.48-.25,32.97.11,49.44.55,24.86,15.43,42.73,39.59,48.55,4.43,1.07,9.14.76,13.33,2.85h-226.98c3.23-1.96,6.98-1.29,10.46-1.93,19.1-3.55,32.99-13.53,40.17-31.97,2.58-6.61,1.3-9.31-5.46-11.79-2.65-.97-5.34-1.84-8.01-2.77-7.33-2.57-8.34-2.24-11.39,4.87-3.97,9.27-10.83,14.99-20.57,17.22-8.43,1.93-16.88,1.71-25.19-.71-11.06-3.21-18.47-11.68-19-23.07-.88-18.79-.84-37.63,0-56.43.39-8.64,4.69-15.51,12.33-19.95,19.36-11.26,43.53-4.2,53.24,15.66,1.84,3.76,4.38,4.69,8.08,3.45,3.78-1.26,7.59-2.47,11.33-3.85,5.63-2.08,6.89-4.8,4.8-10.43-5.56-14.93-15.69-25.28-30.95-30.29-13.08-4.3-26.49-4.82-39.98-2.77-26.68,4.05-42.86,19.97-45.24,46.68-1.76,19.7-1.68,39.68-.03,59.39,2.16,25.81,16.56,40.92,41.47,46.37,3.96.87,8.17.47,11.94,2.32-316.83,0-633.66,0-950.49.1-3.89,0-4.54-1.02-4.53-4.66.14-42.47.09-84.95.09-127.42,2.33,3.19,5.48,4.07,9.36,3.99,9.82-.19,19.66.15,29.48-.17,4.06-.13,4.91,1.18,4.9,5.02-.14,36.15-.09,72.29-.08,108.44,0,1.83.05,3.66.14,5.49.18,3.4,2.04,5.18,5.41,5.26,3.66.09,7.33.09,10.99.09,8.87,0,9.8-.92,9.8-9.63,0-36.65.06-73.29-.08-109.94-.01-3.63.72-4.84,4.58-4.72,9.82.31,19.65.12,29.48.1,7.79-.02,9.08-1.28,9.14-8.85.02-2.33.02-4.66,0-7-.06-7.37-1.4-8.81-8.7-8.82-31.65-.03-63.3.02-94.95-.06-3.78,0-7.03.74-9.47,3.81ZM957.49,332.6c-108.15,0-216.3.03-324.45-.1-4.57,0-6.17.76-6.19,5.84-.27,65.65-.75,131.29-1.4,196.94-.05,4.9,1.23,6,6.01,6,91.98,0,183.97.2,275.95.33,54.82.08,109.65.15,164.47.06,4.04,0,5.6.83,5.31,5.13-.37,5.47-.36,11.02.09,16.48.37,4.56-1.24,5.49-5.56,5.45-47.16-.43-94.31-.64-141.47-.93-96.81-.59-193.63-1.15-290.44-1.91-4.95-.04-5.98,1.33-5.97,6.03.02,16.99-.48,33.98-.77,50.97-.94,57.14-1.88,114.28-2.81,171.42-1.06,64.97-2.13,129.94-3.15,194.91-.12,7.67-1.14,6.67,6.45,6.67,215.96.02,431.93.02,647.89.02.67,0,1.35-.09,2,.01,3.45.54,3.96-1.02,3.9-4.22-1.25-61.97-2.41-123.93-3.41-185.9-.07-4.18-1.2-5.17-5.29-5.18-84.32-.17-168.64-.49-252.95-.8-64.82-.24-129.64-.57-194.46-.65-4.6,0-5.48-1.35-5.35-5.59.35-11.32.41-22.66.15-33.99-.1-4.49,1.03-5.81,5.71-5.78,65.32.37,130.64.57,195.96.72,84.15.19,168.31.29,252.46.53,3.71.01,5.2-.63,5.13-4.81-.18-12.16.2-24.32.27-36.48.34-62.98.65-125.96.98-188.94.32-62.48.58-124.96,1.07-187.44.04-4.82-2.11-4.83-5.67-4.82-108.15.06-216.3.05-324.45.05ZM1994.26,1199.01c1.87-1.41,1.72-3.26,2.15-4.8,20.81-74.27,41.52-148.57,62.43-222.82,1.35-4.79.59-7.67-3.09-11.13-119.9-113.05-239.66-226.24-359.54-339.3-3.46-3.26-3.7-4.82-.15-8.3,79.25-77.68,158.35-155.51,237.55-233.24,2.56-2.51,3.74-4.97,3.72-8.66-.27-80.48-.39-160.95-.54-241.43,0-1.59,0-3.18,0-5.9-147.74,139.84-294.62,278.87-441.66,418.05-1.31-2.07-.84-3.59-.83-5.03.55-65.81,1.07-131.62,1.8-197.43.05-4.79-.74-6.36-6.04-6.33-49.16.25-98.31.15-147.47.15-7.83,0-15.67.11-23.49-.05-2.78-.06-3.82.73-3.71,3.61.18,4.49-.06,8.99-.07,13.49-.55,212.44-1.08,424.87-1.74,637.31-.01,4.39,1.03,5.51,5.46,5.5,60.99-.16,121.98-.17,182.96.01,4.85.01,5.95-1.2,5.98-5.99.49-62.14,1.28-124.29,1.8-186.43.03-4.02,1.38-4.58,4.86-4.45,11.15.4,22.41,1.45,33.46.45,12.8-1.16,21.44,3.99,30.46,12.49,131.72,124.06,263.76,247.79,395.73,371.59,6.65,6.24,13.33,12.45,19.95,18.63ZM173.94,166.26c0,2.07,0,2.9,0,3.73,0,267.11,0,534.22-.02,801.33,0,11.9,5.74,19.83,16.38,24.47,7.31,3.19,15.08,3.9,22.97,3.9,64.49-.01,128.99,0,193.48,0,52.33,0,104.66,0,156.98,0,10.42,0,20.62-1.32,30.1-5.95,7.44-3.64,11.81-9.16,11.78-18.03-.14-52.16-.03-104.31-.09-156.47-.02-14.15-6.3-22.34-19.85-26.34-8.22-2.43-16.67-2.98-25.2-2.98-57.99.02-115.99-.06-173.98.14-5.08.02-6.22-1.23-6.22-6.25.15-148.64.11-297.27.2-445.91,0-3.84-1.04-6.38-4.09-8.83-56.26-45.14-112.43-90.39-168.62-135.62-10.98-8.84-21.98-17.66-33.82-27.18ZM2395.45,998.8c-24.97,0-48.8.03-72.62-.05-2.19,0-3.24,1-4.31,2.64-4.09,6.27-8.59,12.31-12.37,18.76-2.25,3.83-4,3.29-6.59.75-3.09-3.03-6.39-5.86-9.46-8.91-14.16-14.09-27.17-29.36-43.15-41.58-2.09-1.6-3.7-3.83-5.59-5.71-2.41-2.4-2.72-4.56-.85-7.82,12.64-22.1,26.01-43.86,37.27-66.66,41.35-83.66,63.53-172.35,66.9-265.61,2.2-60.76-4.12-120.71-18.89-179.72-16.15-64.53-41.25-125.3-76.1-182.06-14.74-24.01-31.35-46.71-47.18-69.96-1.59-2.34-2.65-1.8-4.23-.43-3.77,3.28-7.64,6.46-11.29,9.86-26,24.16-49.53,50.83-76.23,74.31-22.51,19.8-41.54,43.29-65.01,62.13-.77.62-1.3,1.52-2.02,2.21-2.19,2.07-2.08,4.05-.46,6.57,4.84,7.57,9.3,15.39,14.15,22.95,21.09,32.9,39.13,67.28,51.4,104.51,19.6,59.45,23.74,120.21,15.22,182.01-6.87,49.91-22.06,97.18-44.9,142.06-1.82,3.57-2.73,3.87-5.68.97-19.38-19.04-38.88-37.94-58.51-56.72-2.6-2.49-3.19-4.64-1.69-7.73,3.48-7.18,7.19-14.28,10.25-21.64,23.07-55.45,27.68-112.59,15.86-171.35-6.74-33.53-20.08-64.33-36.91-93.84-4.92-8.63-4.76-8.69-13.54-3.56-12.96,7.57-24.88,16.71-37.43,24.88-2.73,1.78-7.73,1.75-7.83,5.49-.09,3.14,2.33,6.47,4.01,9.51,5.95,10.77,12.56,21.18,17.27,32.62,8.66,21.01,12.56,43.02,14.31,65.54,2.13,27.43,1.11,54.5-6.93,81.11-8.42,27.86-21.6,53.2-38.04,77.1-6.97,10.13-6.67,7.57,1.47,15.84,48.17,48.94,98.21,95.95,147.75,143.48,2.7,2.59,4.62,2.8,6.84-.14,1.5-1.99,3.09-3.92,4.47-6,7.53-11.39,14.91-22.88,22.52-34.21,23.95-35.65,41.43-74.41,54.32-115.18,19.42-61.44,24.87-124.46,19.37-188.55-3.35-38.99-11.31-76.97-24.38-113.88-10.2-28.8-25.05-55.44-38.46-82.75-3.54-7.21-3.5-7.08,2.63-12.06,10.77-8.76,19.81-19.28,29.39-29.25,7.85-8.17,15.39-16.66,24.23-23.8,6.09-4.92,6.15-4.86,9.9,1.66.66,1.15,1.34,2.3,2.01,3.45,43.85,75.32,72.39,155.7,80.76,242.86,4.67,48.67,3.56,97.17-3.6,145.48-10.65,71.87-34.22,139.36-69.73,202.7-13.7,24.43-29.99,47.21-45.37,70.56-4.61,7-4.67,6.96,1.5,12.97,47.01,45.84,94.01,91.67,141.02,137.52,9.16,8.94,9.23,9,17.22-.92,26.79-33.23,51.85-67.67,72.82-104.94,1.28-2.27,2.66-4.48,4.48-7.52ZM1581.48,1094.9c1.59,4.48,3.1,8.99,4.77,13.43,8.08,21.48,21.2,40.27,32.2,60.2,4.33,7.85,18.66,8.1,23.13.18,13.13-23.3,27.79-45.83,36.72-71.3.29-.83.2-2.31,2.51-2.34-6.13,23.44-4.95,47.1-4.99,70.69-.02,11.16-.04,22.33.02,33.49.03,6.15,1.51,7.56,7.73,7.67,2.67.05,5.33.02,8,0,8.06-.04,9.23-1.19,9.23-9.26.01-33.65,0-67.31,0-100.96,0-10.33.06-20.66-.03-30.99-.05-5.76-1.71-7.41-7.45-7.63-2.99-.12-6.01.13-8.99-.06-5.25-.34-8.58,1.8-11.17,6.51-13.31,24.19-26.91,48.22-40.41,72.31-.76,1.35-1.61,2.65-2.67,4.37-1.24-2.07-2.21-3.6-3.09-5.17-12.35-22.06-25.14-43.89-36.79-66.32-4.67-8.99-10.27-12.78-20.31-11.84-8.75.82-10.03,1.42-10.04,10.28,0,42.99,0,85.97,0,128.96,0,1.17-.02,2.33.03,3.5.15,3.97,2.08,6.21,6.19,6.25,3.5.03,7,.08,10.5.04,6.21-.08,7.83-1.44,7.83-7.61,0-23.82-.15-47.64-.29-71.47-.07-10.98-2.05-21.78-2.64-32.93ZM405.1,1132.7c0,21.66-.01,43.33,0,64.99,0,7.86,1.39,9.22,9.36,9.23,17.17.02,34.33,0,51.5,0,10.67,0,21.33.05,32-.04,5.6-.05,7-1.55,7.14-7.19.07-2.83.04-5.67.02-8.5-.05-7.59-1.05-8.64-8.7-8.65-20.16-.03-40.33-.07-60.49.05-3.15.02-4.38-.67-4.3-4.13.23-10.16.21-20.33.01-30.49-.06-3.24.81-4.24,4.14-4.2,14.16.18,28.33.08,42.5.08q14.77,0,14.74-14.71c-.02-8.82-.91-9.76-9.7-9.78-15.67-.03-31.33-.14-46.99.08-3.8.05-4.86-1.06-4.69-4.76.3-6.32.04-12.66.1-18.99.04-4.13-1.34-9.67.76-12.03,2.49-2.78,8.15-.86,12.42-.89,16.5-.1,33-.02,49.5-.06,7.04-.02,8.57-1.57,8.64-8.43.03-2.5.02-5,0-7.5-.05-7.2-1.51-8.72-8.86-8.73-26.66-.04-53.33-.04-79.99,0-7.47.01-9.07,1.66-9.08,9.15-.02,21.83,0,43.66,0,65.49ZM848.52,1132.34h-.04c0,21.16-.03,42.33.01,63.49.02,10.65.51,11.09,10.94,11.09,24.83,0,49.66,0,74.49,0q14.78,0,14.66-14.87c-.07-8.36-1.17-9.49-9.52-9.5-20-.02-40-.07-59.99.06-3.2.02-4.3-.76-4.22-4.13.23-9.83.29-19.67-.02-29.49-.13-4.08.84-5.31,5.11-5.24,16.33.28,32.66.15,48.99.09,5.67-.02,7.1-1.48,7.3-7.06.11-3,.07-6,.03-9-.1-7.28-1.1-8.31-8.56-8.33-16-.05-32-.17-47.99.08-4.07.06-4.97-1.23-4.86-5.03.26-9.16.26-18.33,0-27.49-.1-3.58,1-4.38,4.44-4.35,17.5.18,35,.08,52.49.08q14.84,0,14.65-15.02c-.1-8.27-1.42-9.65-9.56-9.66-26.33-.02-52.66-.02-78.99,0-7.9,0-9.31,1.33-9.33,9.3-.07,21.66-.02,43.32-.02,64.99ZM632.09,1132.82c0,21.48,0,42.97,0,64.45,0,8.32,1.29,9.64,9.43,9.65,22.98.02,45.97-.02,68.95.02,15.89.02,15.62,1.18,15.45-15.51-.08-7.68-1.21-8.86-9.08-8.87-17.65-.03-35.31-.14-52.96.09-4.11.05-5.3-.99-5.28-5.18.17-35.97.1-71.94.09-107.91,0-1.66,0-3.33-.06-4.99-.15-4.25-2.44-6.37-6.63-6.45-3.5-.07-6.99-.07-10.49-.05-7.84.06-9.4,1.57-9.41,9.32-.02,21.82,0,43.63,0,65.45ZM2386.55,189.16c-8.56-13.12-16.34-25.28-24.35-37.28-8.31-12.45-16.81-24.78-26.58-36.18-3.14-3.67-5.81-4.39-9.17-.63-.66.74-1.5,1.31-2.28,1.94-13.78,10.96-27.55,21.92-41.62,33.11,6.33,9.62,13.56,19.44,19.46,29.99,4.14,7.4,9.18,9.53,17.45,9.28,21.94-.65,43.91-.22,67.09-.22ZM2409.26,902.62c-10.65,0-21.29.1-31.94-.07-2.9-.05-4.38.88-5.63,3.55-7.8,16.7-15.62,33.4-24.79,49.42-2.08,3.64-.75,4.02,2.63,4.01,21.79-.09,43.58-.09,65.38.02,2.72.01,4.17-.87,5.4-3.26,8.47-16.38,16.11-33.15,23.3-50.13,1.18-2.78.79-3.66-2.42-3.61-10.64.16-21.29.06-31.94.06ZM2334.41,228.75c12.13,18.06,21.65,36.45,30.72,55.09.95,1.95,2.54,1.79,4.21,1.79,21.29,0,42.59-.03,63.88.03,2.76,0,4.09-.19,2.56-3.49-7.95-17.19-16.31-34.17-25.11-50.94-.98-1.87-2.22-2.52-4.31-2.52-23.62.06-47.23.04-71.95.04ZM2383.89,324.94c.33,1.1.49,1.89.79,2.62,6.99,16.89,13.8,33.86,19.06,51.38.97,3.24,3.02,2.92,5.33,2.92,19.81,0,39.63.01,59.44-.04,1.32,0,2.94.74,4.09-.88-5.24-17.89-11.22-35.49-17.8-52.9-.67-1.77-1.22-3.16-3.68-3.15-22.29.1-44.59.06-67.23.06ZM2425.26,863.03c10.32,0,20.65-.07,30.97.05,2.54.03,3.81-.68,4.65-3.24,5.45-16.58,10.48-33.28,15.06-50.12.82-3.03.15-3.64-2.81-3.63-19.98.1-39.97.09-59.95,0-2.61-.01-3.75.83-4.51,3.39-5.04,16.88-10.59,33.6-17,50.02-1.22,3.13-.28,3.6,2.62,3.57,10.32-.11,20.65-.04,30.97-.04ZM2449.93,421.09c-9.83,0-19.66.18-29.48-.09-3.71-.1-4.52.85-3.57,4.37,4.32,16.06,7.7,32.35,10.68,48.7.58,3.19,1.67,4.01,4.76,3.99,19.15-.13,38.31-.16,57.47.02,3.63.03,4.58-.98,3.96-4.49-2.93-16.37-5.93-32.72-9.62-48.94-.67-2.95-1.94-3.66-4.71-3.62-9.83.14-19.65.05-29.48.05ZM2453.44,766.86c9.65,0,19.3.02,28.95-.02,1.69,0,3.75.69,4.3-2.07,3.45-17.27,6.77-34.55,9.22-52,.4-2.86-1.19-2.86-3.2-2.85-19.47.03-38.93.04-58.4-.01-2.16,0-3.22.48-3.58,2.91-2.53,16.92-5.65,33.74-9.72,50.37-.69,2.8-.08,3.79,2.98,3.74,9.81-.17,19.63-.06,29.45-.06ZM2467.09,517.53c-9.32,0-18.65.16-27.96-.08-3.7-.09-4.86.79-4.48,4.71,1.56,16.06,2.83,32.16,3.16,48.3.07,3.2,1.33,3.83,4.19,3.81,18.98-.1,37.95-.1,56.93,0,2.96.02,4.13-.64,3.92-3.86-1.09-16.43-2.04-32.88-2.89-49.32-.15-2.82-1.16-3.66-3.9-3.62-9.65.13-19.31.05-28.96.05Z"/>
  <path class="cls-1" d="M1362.89,1210.79c-4.19-2.1-8.9-1.79-13.33-2.85-24.15-5.83-39.04-23.69-39.59-48.55-.36-16.47-.17-32.96-.11-49.44.12-29.86,15.13-48.09,44.41-53.63,13.1-2.48,26.22-1.92,39.04,1.88,22.07,6.56,34.49,22.12,35.94,47.27,1.1,19.08,1.34,38.3-.26,57.39-2.12,25.14-18.56,41.99-43.61,46.05-3.49.57-7.23-.05-10.48,1.89h-12ZM1403.24,1132.59h-.24c0-9.16.37-18.34-.09-27.48-.58-11.67-7.36-19.84-18.5-23.45-7.95-2.57-16.1-2.73-24.2-1.24-14.85,2.74-22.72,10.54-23.62,25.4-1.09,18.1-1.23,36.32.12,54.42,1,13.35,8.54,21.17,21.49,24.14,5.04,1.15,10.2,1.59,15.39,1.16,20.23-1.66,29.58-11.74,29.64-31.97.02-7,0-13.99,0-20.99Z"/>
  <path class="cls-1" d="M1123.91,1210.79c-3.77-1.85-7.97-1.45-11.94-2.32-24.91-5.45-39.31-20.56-41.47-46.37-1.65-19.71-1.73-39.69.03-59.39,2.39-26.71,18.57-42.63,45.24-46.68,13.49-2.05,26.9-1.53,39.98,2.77,15.26,5.01,25.39,15.36,30.95,30.29,2.1,5.63.83,8.35-4.8,10.43-3.74,1.38-7.55,2.58-11.33,3.85-3.71,1.24-6.24.31-8.08-3.45-9.71-19.86-33.88-26.92-53.24-15.66-7.64,4.44-11.94,11.32-12.33,19.95-.84,18.8-.89,37.63,0,56.43.53,11.39,7.94,19.86,19,23.07,8.31,2.41,16.76,2.64,25.19.71,9.74-2.23,16.6-7.95,20.57-17.22,3.04-7.11,4.06-7.44,11.39-4.87,2.67.93,5.36,1.8,8.01,2.77,6.76,2.48,8.04,5.18,5.46,11.79-7.19,18.43-21.07,28.42-40.17,31.97-3.48.65-7.22-.02-10.46,1.93h-12Z"/>
  <path class="cls-1" d="M168.98,1061.81c2.44-3.07,5.69-3.82,9.47-3.81,31.65.07,63.3.02,94.95.06,7.3,0,8.64,1.45,8.7,8.82.02,2.33.02,4.66,0,7-.05,7.57-1.35,8.84-9.14,8.85-9.83.02-19.66.21-29.48-.1-3.86-.12-4.6,1.09-4.58,4.72.14,36.65.09,73.29.08,109.94,0,8.71-.93,9.62-9.8,9.63-3.66,0-7.33,0-10.99-.09-3.37-.08-5.23-1.86-5.41-5.26-.1-1.83-.14-3.66-.14-5.49,0-36.15-.06-72.29.08-108.44.02-3.84-.84-5.14-4.9-5.02-9.82.31-19.66-.03-29.48.17-3.87.08-7.03-.8-9.36-3.99v-17Z"/>
  <path class="cls-2" d="M2504.8,620.89c-1.78,9.16-.82,18.5-1.89,27.72-.71,6.11-.98,12.28-1.36,18.42-.16,2.59-1.09,3.74-3.97,3.72-19.48-.12-38.97-.11-58.46-.01-2.8.01-3.34-1.04-3.08-3.57,1.72-16.57,2.19-33.22,2.56-49.86.06-2.89.99-3.61,3.74-3.59,20.81.13,41.63.13,62.45.16v7Z"/>
  <path class="cls-2" d="M957.49,332.6c108.15,0,216.3.01,324.45-.05,3.56,0,5.71,0,5.67,4.82-.49,62.48-.75,124.96-1.07,187.44-.32,62.98-.63,125.96-.98,188.94-.07,12.16-.45,24.33-.27,36.48.06,4.17-1.43,4.82-5.13,4.81-84.15-.24-168.31-.34-252.46-.53-65.32-.15-130.64-.35-195.96-.72-4.68-.03-5.82,1.3-5.71,5.78.26,11.32.2,22.66-.15,33.99-.13,4.24.76,5.58,5.35,5.59,64.82.08,129.64.41,194.46.65,84.32.31,168.64.63,252.95.8,4.09,0,5.22,1,5.29,5.18.99,61.97,2.15,123.94,3.41,185.9.06,3.2-.45,4.76-3.9,4.22-.65-.1-1.33-.01-2-.01-215.96,0-431.93,0-647.89-.02-7.59,0-6.57,1-6.45-6.67,1.02-64.97,2.09-129.94,3.15-194.91.93-57.14,1.87-114.28,2.81-171.42.28-16.99.78-33.98.77-50.97,0-4.7,1.03-6.07,5.97-6.03,96.81.76,193.63,1.32,290.44,1.91,47.16.29,94.31.49,141.47.93,4.32.04,5.94-.89,5.56-5.45-.45-5.46-.46-11.01-.09-16.48.29-4.3-1.26-5.14-5.31-5.13-54.82.09-109.65.02-164.47-.06-91.98-.13-183.97-.33-275.95-.33-4.78,0-6.06-1.1-6.01-6,.65-65.64,1.13-131.29,1.4-196.94.02-5.08,1.62-5.84,6.19-5.84,108.15.13,216.3.1,324.45.1Z"/>
  <path class="cls-1" d="M1994.26,1199.01c-6.62-6.18-13.3-12.39-19.95-18.63-131.97-123.8-264.01-247.53-395.73-371.59-9.02-8.5-17.66-13.65-30.46-12.49-11.05,1-22.31-.05-33.46-.45-3.48-.13-4.83.43-4.86,4.45-.52,62.14-1.31,124.29-1.8,186.43-.04,4.79-1.14,6-5.98,5.99-60.99-.18-121.98-.17-182.96-.01-4.43.01-5.48-1.11-5.46-5.5.66-212.44,1.19-424.87,1.74-637.31.01-4.5.25-9,.07-13.49-.12-2.89.93-3.67,3.71-3.61,7.83.16,15.66.05,23.49.05,49.16,0,98.31.1,147.47-.15,5.3-.03,6.09,1.54,6.04,6.33-.73,65.81-1.25,131.62-1.8,197.43-.01,1.43-.48,2.96.83,5.03,147.04-139.18,293.93-278.21,441.66-418.05,0,2.73,0,4.32,0,5.9.15,80.48.28,160.95.54,241.43.01,3.69-1.17,6.15-3.72,8.66-79.19,77.74-158.29,155.57-237.55,233.24-3.55,3.48-3.31,5.04.15,8.3,119.88,113.06,239.64,226.25,359.54,339.3,3.67,3.46,4.44,6.34,3.09,11.13-20.91,74.24-41.62,148.55-62.43,222.82-.43,1.53-.28,3.39-2.15,4.8Z"/>
  <path class="cls-1" d="M173.94,166.26c11.84,9.51,22.83,18.34,33.82,27.18,56.19,45.23,112.36,90.48,168.62,135.62,3.06,2.45,4.1,5,4.09,8.83-.09,148.64-.05,297.27-.2,445.91,0,5.02,1.14,6.27,6.22,6.25,57.99-.2,115.99-.12,173.98-.14,8.53,0,16.98.55,25.2,2.98,13.55,4,19.83,12.19,19.85,26.34.06,52.16-.04,104.31.09,156.47.02,8.87-4.34,14.4-11.78,18.03-9.48,4.63-19.69,5.95-30.1,5.95-52.33.02-104.66,0-156.98,0-64.49,0-128.99,0-193.48,0-7.89,0-15.66-.72-22.97-3.9-10.64-4.64-16.38-12.56-16.38-24.47.02-267.11.02-534.22.02-801.33,0-.83,0-1.66,0-3.73Z"/>
  <path class="cls-2" d="M2395.45,998.8c-1.81,3.04-3.2,5.25-4.48,7.52-20.97,37.27-46.03,71.71-72.82,104.94-8,9.92-8.06,9.86-17.22.92-47-45.84-94.01-91.68-141.02-137.52-6.17-6.01-6.11-5.98-1.5-12.97,15.38-23.36,31.67-46.13,45.37-70.56,35.51-63.34,59.09-130.84,69.73-202.7,7.16-48.32,8.27-96.81,3.6-145.48-8.37-87.16-36.91-167.54-80.76-242.86-.67-1.15-1.34-2.3-2.01-3.45-3.75-6.52-3.8-6.58-9.9-1.66-8.85,7.14-16.38,15.63-24.23,23.8-9.58,9.97-18.61,20.49-29.39,29.25-6.13,4.98-6.17,4.85-2.63,12.06,13.41,27.31,28.26,53.95,38.46,82.75,13.06,36.9,21.03,74.88,24.38,113.88,5.5,64.09.05,127.11-19.37,188.55-12.89,40.77-30.37,79.54-54.32,115.18-7.61,11.33-14.99,22.82-22.52,34.21-1.37,2.08-2.96,4.01-4.47,6-2.22,2.93-4.14,2.73-6.84.14-49.54-47.53-99.58-94.55-147.75-143.48-8.14-8.27-8.43-5.71-1.47-15.84,16.44-23.9,29.62-49.24,38.04-77.1,8.04-26.61,9.06-53.68,6.93-81.11-1.75-22.52-5.66-44.53-14.31-65.54-4.71-11.44-11.32-21.85-17.27-32.62-1.68-3.04-4.1-6.37-4.01-9.51.1-3.74,5.11-3.72,7.83-5.49,12.56-8.18,24.48-17.31,37.43-24.88,8.78-5.13,8.61-5.07,13.54,3.56,16.84,29.51,30.17,60.31,36.91,93.84,11.82,58.76,7.21,115.9-15.86,171.35-3.06,7.36-6.77,14.45-10.25,21.64-1.5,3.09-.91,5.24,1.69,7.73,19.63,18.78,39.13,37.68,58.51,56.72,2.94,2.89,3.86,2.59,5.68-.97,22.84-44.88,38.02-92.15,44.9-142.06,8.51-61.8,4.38-122.56-15.22-182.01-12.27-37.23-30.32-71.61-51.4-104.51-4.85-7.57-9.31-15.38-14.15-22.95-1.61-2.52-1.72-4.5.46-6.57.72-.68,1.25-1.59,2.02-2.21,23.47-18.84,42.5-42.33,65.01-62.13,26.69-23.49,50.22-50.16,76.23-74.31,3.66-3.4,7.53-6.57,11.29-9.86,1.57-1.37,2.63-1.91,4.23.43,15.83,23.25,32.44,45.95,47.18,69.96,34.85,56.76,59.94,117.53,76.1,182.06,14.77,59.01,21.09,118.96,18.89,179.72-3.37,93.26-25.55,181.95-66.9,265.61-11.27,22.79-24.63,44.56-37.27,66.66-1.87,3.27-1.56,5.42.85,7.82,1.89,1.88,3.49,4.11,5.59,5.71,15.98,12.22,28.99,27.49,43.15,41.58,3.07,3.05,6.36,5.88,9.46,8.91,2.59,2.54,4.34,3.08,6.59-.75,3.79-6.45,8.28-12.48,12.37-18.76,1.07-1.65,2.12-2.65,4.31-2.64,23.83.08,47.65.05,72.62.05Z"/>
  <path class="cls-1" d="M1581.48,1094.9c.6,11.16,2.57,21.95,2.64,32.93.14,23.82.29,47.64.29,71.47,0,6.17-1.62,7.52-7.83,7.61-3.5.05-7,0-10.5-.04-4.11-.04-6.04-2.28-6.19-6.25-.04-1.16-.03-2.33-.03-3.5,0-42.99,0-85.97,0-128.96,0-8.86,1.29-9.46,10.04-10.28,10.03-.94,15.64,2.85,20.31,11.84,11.65,22.43,24.45,44.25,36.79,66.32.88,1.58,1.85,3.1,3.09,5.17,1.06-1.73,1.91-3.02,2.67-4.37,13.5-24.08,27.1-48.12,40.41-72.31,2.59-4.71,5.92-6.85,11.17-6.51,2.99.19,6-.05,8.99.06,5.74.23,7.4,1.87,7.45,7.63.09,10.33.03,20.66.03,30.99,0,33.65,0,67.31,0,100.96,0,8.07-1.17,9.22-9.23,9.26-2.67.01-5.33.04-8,0-6.22-.11-7.7-1.51-7.73-7.67-.06-11.16-.04-22.33-.02-33.49.04-23.59-1.15-47.25,4.99-70.69-2.31.03-2.22,1.51-2.51,2.34-8.93,25.47-23.59,48.01-36.72,71.3-4.47,7.92-18.8,7.67-23.13-.18-11-19.92-24.12-38.72-32.2-60.2-1.67-4.45-3.19-8.95-4.77-13.43Z"/>
  <path class="cls-1" d="M405.09,1132.7c0-21.83-.02-43.66,0-65.49,0-7.49,1.61-9.14,9.08-9.15,26.66-.04,53.33-.04,79.99,0,7.35.01,8.81,1.54,8.86,8.73.02,2.5.02,5,0,7.5-.07,6.86-1.6,8.41-8.64,8.43-16.5.04-33-.05-49.5.06-4.27.03-9.93-1.89-12.42.89-2.11,2.36-.72,7.9-.76,12.03-.06,6.33.2,12.67-.1,18.99-.17,3.7.89,4.82,4.69,4.76,15.66-.22,31.33-.12,46.99-.08,8.79.02,9.69.96,9.7,9.78q.03,14.71-14.74,14.71c-14.17,0-28.33.1-42.5-.08-3.33-.04-4.2.96-4.14,4.2.2,10.16.22,20.33-.01,30.49-.08,3.45,1.15,4.15,4.3,4.13,20.16-.12,40.33-.08,60.49-.05,7.65.01,8.65,1.06,8.7,8.65.02,2.83.05,5.67-.02,8.5-.14,5.64-1.54,7.14-7.14,7.19-10.66.09-21.33.04-32,.04-17.17,0-34.33.01-51.5,0-7.97-.01-9.35-1.37-9.36-9.23-.02-21.66,0-43.33,0-64.99Z"/>
  <path class="cls-1" d="M848.52,1132.34c0-21.66-.05-43.33.02-64.99.03-7.96,1.43-9.29,9.33-9.3,26.33-.03,52.66-.02,78.99,0,8.13,0,9.46,1.39,9.56,9.66q.18,15.02-14.65,15.02c-17.5,0-35,.1-52.49-.08-3.44-.04-4.55.77-4.44,4.35.27,9.16.27,18.33,0,27.49-.11,3.81.79,5.1,4.86,5.03,15.99-.25,32-.14,47.99-.08,7.46.02,8.46,1.06,8.56,8.33.04,3,.08,6-.03,9-.2,5.59-1.63,7.04-7.3,7.06-16.33.06-32.67.19-48.99-.09-4.27-.07-5.24,1.16-5.11,5.24.31,9.82.25,19.66.02,29.49-.08,3.37,1.01,4.15,4.22,4.13,20-.13,40-.08,59.99-.06,8.35,0,9.45,1.14,9.52,9.5q.12,14.87-14.66,14.87c-24.83,0-49.66,0-74.49,0-10.43,0-10.92-.44-10.94-11.09-.04-21.16-.01-42.33-.01-63.49h.04Z"/>
  <path class="cls-1" d="M632.09,1132.82c0-21.82-.02-43.63,0-65.45,0-7.75,1.57-9.27,9.41-9.32,3.5-.02,7-.02,10.49.05,4.19.08,6.48,2.2,6.63,6.45.06,1.66.06,3.33.06,4.99,0,35.97.07,71.94-.09,107.91-.02,4.2,1.18,5.24,5.28,5.18,17.65-.23,35.31-.12,52.96-.09,7.88.01,9.01,1.19,9.08,8.87.16,16.7.43,15.53-15.45,15.51-22.98-.03-45.97,0-68.95-.02-8.14,0-9.43-1.33-9.43-9.65-.01-21.48,0-42.97,0-64.45Z"/>
  <path class="cls-2" d="M2386.55,189.16c-23.18,0-45.15-.43-67.09.22-8.27.25-13.31-1.88-17.45-9.28-5.9-10.55-13.13-20.36-19.46-29.99,14.07-11.19,27.84-22.15,41.62-33.11.78-.62,1.63-1.2,2.28-1.94,3.36-3.76,6.03-3.04,9.17.63,9.77,11.41,18.26,23.73,26.58,36.18,8.01,12.01,15.79,24.16,24.35,37.28Z"/>
  <path class="cls-2" d="M2409.26,902.62c10.65,0,21.29.1,31.94-.06,3.2-.05,3.59.82,2.42,3.61-7.19,16.98-14.83,33.74-23.3,50.13-1.23,2.38-2.68,3.27-5.4,3.26-21.79-.11-43.58-.11-65.38-.02-3.38.01-4.71-.37-2.63-4.01,9.16-16.02,16.98-32.72,24.79-49.42,1.25-2.67,2.72-3.6,5.63-3.55,10.64.17,21.29.07,31.94.07Z"/>
  <path class="cls-2" d="M2334.41,228.75c24.72,0,48.34.02,71.95-.04,2.09,0,3.32.64,4.31,2.52,8.8,16.77,17.16,33.75,25.11,50.94,1.53,3.3.2,3.5-2.56,3.49-21.29-.06-42.59-.04-63.88-.03-1.66,0-3.26.16-4.21-1.79-9.07-18.64-18.59-37.03-30.72-55.09Z"/>
  <path class="cls-2" d="M2383.89,324.94c22.64,0,44.93.04,67.23-.06,2.47-.01,3.01,1.38,3.68,3.15,6.58,17.4,12.56,35.01,17.8,52.9-1.15,1.62-2.77.88-4.09.88-19.81.06-39.63.04-59.44.04-2.31,0-4.36.31-5.33-2.92-5.27-17.52-12.07-34.49-19.06-51.38-.3-.73-.46-1.51-.79-2.62Z"/>
  <path class="cls-2" d="M2425.26,863.03c-10.32,0-20.65-.07-30.97.04-2.89.03-3.84-.44-2.62-3.57,6.41-16.42,11.96-33.14,17-50.02.76-2.56,1.9-3.4,4.51-3.39,19.98.09,39.97.1,59.95,0,2.97-.02,3.64.6,2.81,3.63-4.58,16.84-9.6,33.54-15.06,50.12-.84,2.56-2.11,3.27-4.65,3.24-10.32-.12-20.65-.05-30.97-.05Z"/>
  <path class="cls-2" d="M2449.93,421.09c9.83,0,19.66.08,29.48-.05,2.78-.04,4.04.67,4.71,3.62,3.69,16.22,6.69,32.57,9.62,48.94.63,3.51-.32,4.52-3.96,4.49-19.15-.17-38.31-.15-57.47-.02-3.08.02-4.18-.8-4.76-3.99-2.99-16.35-6.37-32.64-10.68-48.7-.95-3.52-.14-4.47,3.57-4.37,9.82.27,19.65.09,29.48.09Z"/>
  <path class="cls-2" d="M2453.44,766.86c-9.82,0-19.63-.1-29.45.06-3.06.05-3.67-.93-2.98-3.74,4.07-16.63,7.19-33.45,9.72-50.37.36-2.43,1.42-2.92,3.58-2.91,19.47.05,38.93.04,58.4.01,2.01,0,3.6,0,3.2,2.85-2.45,17.44-5.78,34.73-9.22,52-.55,2.76-2.61,2.06-4.3,2.07-9.65.05-19.3.02-28.95.02Z"/>
  <path class="cls-2" d="M2467.09,517.53c9.65,0,19.31.08,28.96-.05,2.75-.04,3.76.8,3.9,3.62.85,16.45,1.8,32.89,2.89,49.32.21,3.22-.96,3.88-3.92,3.86-18.98-.11-37.95-.1-56.93,0-2.86.01-4.12-.61-4.19-3.81-.34-16.14-1.6-32.23-3.16-48.3-.38-3.92.79-4.81,4.48-4.71,9.32.23,18.64.08,27.96.08Z"/>
  <path class="cls-3" d="M1403.24,1132.59c0,7,.02,13.99,0,20.99-.06,20.23-9.41,30.3-29.64,31.97-5.19.43-10.35,0-15.39-1.16-12.96-2.96-20.5-10.78-21.49-24.14-1.35-18.1-1.21-36.32-.12-54.42.9-14.86,8.76-22.66,23.62-25.4,8.1-1.49,16.25-1.33,24.2,1.24,11.15,3.6,17.92,11.78,18.5,23.45.46,9.14.09,18.32.09,27.48h.24Z"/>
</svg>