<?xml version="1.0" encoding="UTF-8"?>
<svg id="Camada_1" xmlns="http://www.w3.org/2000/svg" viewBox="0 0 1920 1080">
  <defs>
    <style>
      .cls-1 {
        fill: #2a2d96;
      }

      .cls-2 {
        fill: #292d96;
      }

      .cls-3 {
        fill: #01aff1;
      }

      .cls-4 {
        fill: #00aef1;
      }
    </style>
  </defs>
  <path class="cls-4" d="M672.1,390.84c54.08,0,108.17,0,162.25-.03,1.78,0,2.87,0,2.84,2.41-.21,18-.28,35.99-.37,53.99-.23,45.58-.44,91.15-.67,136.73-.03,5.17-.26,10.34-.11,15.49.07,2.35-.76,2.67-2.83,2.66-42-.13-84-.17-126-.27-32.67-.08-65.33-.17-98-.36-2.34-.01-2.91.65-2.86,2.89.13,5.66.1,11.33-.07,17-.07,2.12.38,2.79,2.68,2.8,32.42.04,64.83.21,97.25.33,42.17.16,84.33.31,126.5.4,2.05,0,2.61.5,2.65,2.59.5,30.99,1.08,61.98,1.7,92.97.03,1.6-.23,2.38-1.95,2.11-.33-.05-.67,0-1,0-108,0-216,0-324,0-3.78,0-3.29.51-3.23-3.34.51-32.49,1.04-64.98,1.57-97.47.47-28.57.93-57.15,1.41-85.72.14-8.5.39-16.99.38-25.49,0-2.35.51-3.04,2.99-3.02,48.41.38,96.83.66,145.24.95,23.58.14,47.16.25,70.75.46,2.16.02,2.97-.44,2.78-2.72-.22-2.73-.23-5.51-.05-8.24.14-2.15-.63-2.57-2.65-2.57-27.33.04-54.67.01-82-.03-46.08-.07-92.16-.17-138.24-.17-2.39,0-3.03-.55-3.01-3,.33-32.83.57-65.66.7-98.48.01-2.54.81-2.92,3.1-2.92,54.08.06,108.17.05,162.25.05Z"/>
  <path class="cls-1" d="M1190.57,824.11c-.64-.58-1.31-1.17-1.96-1.78-63.38-59.46-126.76-118.92-190.14-178.39-6.99-6.56-14-13.09-20.97-19.66-.88-.83-1.73-1.34-3.03-1.35-7.92-.07-15.83-.2-23.74-.42-1.73-.05-2.42.2-2.43,2.22-.26,31.16-.65,62.32-.91,93.48-.02,2.17-.5,2.75-2.73,2.74-30.58-.08-61.16-.08-91.75,0-2.21,0-2.74-.54-2.74-2.74.33-106.4.6-212.8.88-319.21,0-2.57-.85-6.03.46-7.49,1.5-1.67,5.02-.51,7.66-.51,26.5-.04,53,.01,79.5-.08,2.39,0,2.79.73,2.77,2.9-.35,32.99-.62,65.99-.9,98.98,0,.73,0,1.45,0,2.92,73.95-70,147.41-139.53,221.29-209.46,0,1.36,0,2.15,0,2.95.08,40.24.14,80.49.27,120.73,0,1.84-.58,3.07-1.86,4.33-39.6,38.87-79.16,77.8-118.79,116.64-1.77,1.74-1.66,2.52.07,4.15,59.95,56.54,119.84,113.14,179.8,169.68,1.83,1.73,2.22,3.16,1.54,5.56-10.46,37.13-20.81,74.28-31.22,111.42-.21.77-.14,1.69-1.06,2.4Z"/>
  <path class="cls-2" d="M280.26,307.66c5.98,4.81,11.55,9.27,17.1,13.75,28.03,22.56,56.06,45.14,84.13,67.66,1.53,1.22,2.05,2.49,2.05,4.41-.05,74.33-.02,148.66-.1,222.99,0,2.5.55,3.14,3.1,3.13,29-.1,58-.06,87-.07,4.27,0,8.49.27,12.6,1.49,6.77,2,9.92,6.09,9.93,13.17.03,26.08-.02,52.16.05,78.25.01,4.44-2.17,7.2-5.89,9.02-4.74,2.32-9.84,2.98-15.05,2.98-30,0-60,0-90,0-28.42,0-56.84,0-85.25,0-3.94,0-7.83-.36-11.49-1.95-5.32-2.32-8.19-6.28-8.19-12.23.01-133.58,0-267.15,0-400.73,0-.41,0-.83,0-1.86Z"/>
  <g>
    <path class="cls-3" d="M1262.19,632.02c-6.6-14.32-9.94-30.92-9.94-49.31v-11.81c-4.12,18.46-10.57,36.18-19.24,53.21-.91,1.79-1.38,1.92-2.84.48-9.69-9.52-19.44-18.97-29.26-28.36-1.3-1.25-1.59-2.32-.84-3.87,1.77-3.67,3.65-7.3,5.21-11.06,11.82-28.51,13.85-57.82,7.32-87.89-3.45-15.88-9.99-30.45-17.94-44.49-2.45-4.32-2.37-4.34-6.77-1.77-6.48,3.79-12.44,8.35-18.72,12.44-1.36.89-3.87.87-3.92,2.75-.04,1.57,1.17,3.24,2.01,4.76,2.94,5.31,6.2,10.45,8.55,16.08,4.78,11.44,6.74,23.48,7.45,35.75.63,10.84.43,21.62-2.21,32.27-3.91,15.8-10.87,30.11-20.08,43.48-4.05,5.88-3.9,4.26.85,9.08,23.57,23.93,48.03,46.94,72.3,70.16,3.05,2.92,3.27,2.89,5.74-.56.34-.47.66-.96.98-1.45,3.75-5.71,7.45-11.45,11.25-17.11,4.27-6.36,8.12-12.91,11.61-19.64-.53-1.03-1.04-2.08-1.53-3.14Z"/>
    <path class="cls-3" d="M1222.15,409.79c4.19,6.54,8.14,13.2,11.76,20.02h18.34v-48.13h23.44c3.18-3.36,6.36-6.73,9.98-9.65,3.05-2.46,3.07-2.43,4.95.83.33.58.67,1.15,1,1.73,1.37,2.35,2.71,4.72,4.02,7.09h36.86c-.94-1.92-1.9-3.84-2.88-5.75-9.99-19.47-22.5-37.33-35.07-55.17-.68-.97-1.16-.68-1.77-.16-1.96,1.68-3.98,3.3-5.85,5.08-14.28,13.63-27.75,28.1-42.45,41.31-9.6,8.63-17.82,18.71-28,26.75-.45.36-.77.88-1.19,1.28-1.09,1.04-1.04,2.02-.23,3.29,2.42,3.79,4.65,7.69,7.08,11.48Z"/>
    <path class="cls-3" d="M1362.87,724c-3.08,0-6.68-.9-9.09.39-2.41,1.29-3.64,4.79-5.35,7.35-3.43,5.09-3.45,5.12-7.95.77-8.08-7.81-15.34-16.47-24.28-23.39-.72-.55-1.24-1.34-1.91-1.98-1.38-1.32-1.45-2.53-.48-4.33,4.03-7.57,8.53-14.88,12.81-22.32-10.91-2.2-20.81-5.86-29.57-10.96-.35-.2-.69-.42-1.04-.63-7.28,12.91-15.76,25.03-23.97,37.33-1.49,2.23-1.21,3.28.61,5.04,23.81,23.09,47.53,46.27,71.28,69.42,4.58,4.47,4.61,4.5,8.61-.46,13.4-16.62,25.93-33.84,36.41-52.48.64-1.13,1.33-2.24,2.24-3.76-9.82,0-19.07,0-28.32,0Z"/>
  </g>
  <path class="cls-3" d="M1386.74,319.12c-11.42,0-22.25-.24-33.05.12-4.5.15-7.29-1-9.51-5.06-2.82-5.16-6.38-9.91-9.45-14.58,7.03-5.6,13.92-11.08,20.81-16.56.39-.31.81-.6,1.14-.97,1.68-1.88,3.01-1.52,4.59.31,4.89,5.7,9.13,11.87,13.29,18.09,4.01,6,7.9,12.08,12.18,18.65Z"/>
  <path class="cls-3" d="M1360.66,338.91c12.36,0,24.17.01,35.98-.02,1.04,0,1.66.32,2.15,1.26,4.4,8.39,8.58,16.88,12.56,25.47.76,1.65.1,1.75-1.28,1.75-10.65-.03-21.3-.02-31.95-.02-.83,0-1.63.08-2.1-.89-4.54-9.32-9.3-18.52-15.36-27.55Z"/>
  <path class="cls-3" d="M1385.4,387.01c11.32,0,22.47.02,33.62-.03,1.23,0,1.51.69,1.84,1.58,3.29,8.7,6.28,17.51,8.9,26.45-.58.81-1.39.44-2.05.44-9.91.03-19.82.02-29.73.02-1.16,0-2.18.16-2.67-1.46-2.63-8.76-6.03-17.25-9.53-25.7-.15-.36-.23-.76-.4-1.31Z"/>
  <g>
    <path class="cls-1" d="M1394.19,517.36h-47.74v53.42c0,6.26,1.86,11.22,5.58,14.87,3.72,3.65,9.23,5.48,16.53,5.48,7.7,0,16.24-2.28,25.63-6.85v67.31c-12,6.26-25.76,9.39-41.29,9.39-17.87,0-32.81-3.49-44.81-10.47-12-6.98-20.64-16.21-25.92-27.69-5.28-11.48-7.92-24.85-7.92-40.11v-65.35h-27.2v-65.55h27.2v-48.13h72.2v48.13h47.74v65.55Z"/>
    <polygon class="cls-1" points="1559.14 451.81 1639.75 451.81 1560.31 656.09 1486.54 656.09 1407.3 451.81 1489.48 451.81 1524.31 560.41 1559.14 451.81"/>
  </g>
  <path class="cls-3" d="M1414.06,675.87c-5.32.08-10.65.03-15.97.03-1.5,0-3,0-4.51,0-5,1.89-10.2,3.41-15.59,4.54-3.47,7.41-7.01,14.79-11.08,21.91-1.04,1.82-.38,2.01,1.31,2.01,10.9-.04,21.8-.05,32.69,0,1.36,0,2.08-.44,2.7-1.63,4.24-8.19,8.06-16.58,11.65-25.07.59-1.39.39-1.83-1.21-1.8Z"/>
</svg>