<?xml version="1.0" encoding="UTF-8"?>
<svg id="Camada_2" xmlns="http://www.w3.org/2000/svg" viewBox="0 0 984.87 573.34">
  <defs>
    <style>
      .cls-1 {
        fill: #2a2d96;
      }

      .cls-2 {
        fill: #00aef1;
      }
    </style>
  </defs>
  <g id="Camada_1-2" data-name="Camada_1">
    <g>
      <path class="cls-1" d="M846.06,121.73c0,10.48-.05,20.95.03,31.43.03,3.7-.58,5.49-4.73,3.15-15.51-8.73-31.56-16.38-47.69-23.88-2.81-1.3-3.92-3.03-3.91-6.12.09-20.79.09-41.57,0-62.36-.01-3.46.86-4.51,4.34-3.05,16.4,6.89,32.52,14.39,48.35,22.51,2.79,1.43,3.66,3.43,3.63,6.39-.09,10.64-.04,21.28-.04,31.93Z"/>
      <g>
        <path class="cls-2" d="M538.88,129.18h46.14l-48.88,161.38h-44.43l-22.5-89.77-22.73,89.77h-44.2l-49.11-161.38h47.28l25.01,97.99,24.78-97.99h38.83l25.01,97.99,24.78-97.99Z"/>
        <path class="cls-2" d="M598.95,290.56v-161.38h44.66v161.38h-44.66Z"/>
        <path class="cls-2" d="M778.26,171.32h-63.39v18.84h54.71v42.14h-54.71v58.25h-44.66v-161.38h108.04v42.14Z"/>
        <path class="cls-2" d="M796.65,290.56v-161.38h44.66v161.38h-44.66Z"/>
        <path class="cls-2" d="M935.99,185.25c9.06,0,17.34,2.32,24.84,6.97,7.5,4.65,13.38,10.95,17.65,18.9,4.26,7.96,6.4,16.66,6.4,26.1,0,10.66-2.74,20.29-8.22,28.9-5.48,8.61-12.98,15.3-22.5,20.1-9.52,4.8-20.1,7.2-31.75,7.2-18.96,0-34.19-6.34-45.68-19.02-11.5-12.68-17.25-29.29-17.25-49.85,0-12.71,2.36-24.73,7.08-36.03,4.72-11.31,11.42-21.34,20.1-30.09,8.68-8.75,19.61-15.97,32.78-21.64,13.17-5.67,27.79-9.15,43.86-10.45l8.45,41.69c-11.57.91-21.89,3.18-30.95,6.8-9.06,3.62-16.29,8.13-21.7,13.53,5.86-2.06,11.5-3.08,16.9-3.08ZM910.12,246.87c3.24,2.32,7.25,3.48,12.05,3.48s8.79-1.16,11.99-3.48c3.2-2.32,4.8-5.23,4.8-8.74s-1.6-6.4-4.8-8.68-7.2-3.43-11.99-3.43-8.81,1.14-12.05,3.43c-3.24,2.28-4.85,5.18-4.85,8.68s1.62,6.42,4.85,8.74Z"/>
        <path class="cls-2" d="M424.7,366.14h61.33v11.79c0,9.09-1.57,17.59-4.72,25.51-3.15,7.92-7.46,14.69-12.93,20.31-5.48,5.62-12.11,10.05-19.92,13.28-7.81,3.23-16.19,4.85-25.16,4.85s-17.73-1.65-25.77-4.94c-8.04-3.29-14.93-7.76-20.66-13.41-5.74-5.65-10.27-12.42-13.58-20.31-3.32-7.89-4.98-16.32-4.98-25.29,0-11.94,2.85-22.79,8.56-32.54,5.71-9.75,13.58-17.41,23.63-22.98,10.05-5.56,21.21-8.34,33.5-8.34,10.48,0,20.19,2,29.14,5.98,8.94,3.99,16.15,9.51,21.62,16.56l-25.68,20.62c-2.91-3.32-6.49-5.91-10.75-7.78-4.25-1.86-8.8-2.8-13.63-2.8-8.91,0-16.35,2.99-22.32,8.95-5.97,5.97-8.95,13.41-8.95,22.32s2.97,16.44,8.91,22.41c5.94,5.97,13.34,8.95,22.19,8.95,5.3,0,10.05-1.15,14.24-3.45,4.19-2.3,7.43-5.4,9.7-9.3h-23.76v-30.4Z"/>
        <path class="cls-2" d="M563.7,439.7l-18.96-38.26h-10.75v38.26h-34.16v-123.44h55.47c12.99,0,23.83,4.15,32.54,12.45,8.71,8.3,13.06,18.65,13.06,31.06,0,7.69-1.88,14.65-5.63,20.88-3.76,6.23-8.87,11.18-15.33,14.85l24.72,44.21h-40.97ZM533.99,348.49v23.24h20.53c3.2,0,5.88-1.11,8.04-3.32,2.15-2.21,3.23-4.98,3.23-8.3s-1.08-6.09-3.23-8.3c-2.16-2.21-4.83-3.32-8.04-3.32h-20.53Z"/>
        <path class="cls-2" d="M698.06,439.7l-5.59-17.04h-43.86l-5.5,17.04h-36.69l44.38-123.44h40.27l44.38,123.44h-37.39ZM710.38,280.08l-24.02,28.31h-33.63l17.56-28.31h40.1ZM658.66,391.21h23.76l-11.79-37.04-11.97,37.04Z"/>
        <path class="cls-2" d="M819.41,316.25v32.24h-31.45v91.21h-34.16v-91.21h-31.54v-32.24h97.15Z"/>
        <path class="cls-2" d="M833.56,439.7v-123.44h34.16v123.44h-34.16Z"/>
        <path class="cls-2" d="M934.37,441.88c-9.67,0-19.45-1.78-29.35-5.33-9.9-3.55-18.29-8.24-25.16-14.07l17.3-26.12c5.3,4.54,11.33,8.18,18.08,10.92,6.76,2.74,13.07,4.11,18.96,4.11,4.31,0,7.98-.7,11.01-2.1,3.03-1.4,4.54-3.26,4.54-5.59,0-2.15-1.52-3.9-4.54-5.24-3.03-1.34-8.42-2.97-16.16-4.89-29.35-7.28-44.03-21-44.03-41.15,0-11.53,4.53-20.81,13.58-27.83,9.06-7.02,21.1-10.53,36.12-10.53,9.38,0,18,1.38,25.86,4.15,7.86,2.77,14.33,6.39,19.39,10.88l-15.55,26.12c-3.79-3.26-8.42-5.87-13.89-7.82-5.48-1.95-10.86-2.93-16.16-2.93-4.25,0-7.7.61-10.35,1.83-2.65,1.22-3.97,2.83-3.97,4.8,0,3.9,6.2,7.25,18.61,10.05,2.15.47,4.12.95,5.9,1.44,1.78.5,4.35,1.33,7.73,2.49,3.38,1.17,6.38,2.42,9,3.76,2.62,1.34,5.47,3.13,8.56,5.37,3.09,2.24,5.66,4.65,7.73,7.21,2.07,2.56,3.8,5.65,5.2,9.26,1.4,3.61,2.1,7.48,2.1,11.62,0,7.69-2.23,14.56-6.68,20.62-4.46,6.06-10.51,10.73-18.17,14.02-7.66,3.29-16.21,4.94-25.64,4.94Z"/>
      </g>
      <path class="cls-1" d="M76.59,157.65c0,10.99-.11,21.99.06,32.97.06,3.52-.96,5.84-4.04,7.79-10.81,6.88-21.43,14.06-32.18,21.05-1.3.85-2.68,2.97-4.5.32-9.5-13.88-20.72-26.44-30.99-39.72-6.3-8.15-7.31-6.62,1.25-13.86,17.45-14.77,36.9-26.76,55.99-39.24,3.07-2,6.14-4,9.28-5.89,1.36-.82,2.78-2.66,4.38-1.59,1.46.96.72,3.09.73,4.7.05,11.16.02,22.32.02,33.47Z"/>
      <path class="cls-1" d="M116.42,131.52c0-10.82.04-21.64-.03-32.45-.02-2.72.62-4.65,3.27-6.06,16.01-8.52,32.3-16.48,48.77-24.05,3.39-1.56,4.75-1.22,4.73,2.86-.11,20.14-.1,40.27-.03,60.41.01,3.89-1.29,6.35-5.04,8.17-16.32,7.91-32.46,16.19-47.52,26.36-3.23,2.18-4.22,1.48-4.19-2.29.11-10.98.04-21.97.04-32.95Z"/>
      <path class="cls-1" d="M212.47,85.04c0-10.15.08-20.3-.05-30.44-.04-2.91.95-4.5,3.75-5.56,16.03-6.06,32.26-11.48,48.62-16.54,3.28-1.01,4.48-.31,4.46,3.27-.11,19.63-.12,39.26.01,58.89.02,3.5-1.44,4.98-4.58,5.96-16.2,5.06-32.02,11.16-47.63,17.81-3.47,1.48-4.72,1.08-4.65-2.95.17-10.14.06-20.29.06-30.44Z"/>
      <path class="cls-1" d="M308.52,53.57c0-9.33.11-18.65-.05-27.98-.06-3.43,1.14-5.07,4.57-5.82,15.76-3.48,31.61-6.53,47.51-9.28,3.58-.62,4.76.75,4.74,4.24-.09,18.82-.09,37.63,0,56.45.02,3.31-1.27,4.58-4.48,5.24-15.64,3.23-31.26,6.59-46.81,10.21-4.52,1.05-5.6-.43-5.53-4.6.16-9.49.05-18.98.05-28.47Z"/>
      <path class="cls-1" d="M653.93,50.6c0,9.31-.11,18.63.05,27.94.07,3.91-1.2,4.86-5.05,3.96-15.86-3.72-31.85-6.81-47.96-9.23-3.02-.45-3.82-1.88-3.81-4.64.05-18.63.1-37.26-.03-55.88-.03-4,1.71-4.88,5.21-4.3,15.9,2.62,31.79,5.33,47.57,8.62,3.08.64,4.09,2.1,4.06,5.09-.11,9.48-.04,18.96-.04,28.44Z"/>
      <path class="cls-1" d="M501.14,32.22c0-8.99.13-17.99-.06-26.98-.08-3.88,1.28-5.26,5.21-5.24,15.5.07,30.91,1.45,46.36,2.43,3.59.23,5.32,1.56,5.29,5.51-.15,18.49-.11,36.98-.03,55.47.02,3.43-.96,4.53-4.67,4.27-14.94-1.03-29.9-1.74-44.86-2.38-7.23-.31-7.24-.13-7.25-7.59,0-8.5,0-16.99,0-25.49Z"/>
      <path class="cls-1" d="M405.07,36.5c0-8.99.12-17.98-.05-26.97-.07-3.77,1.21-5.29,5.11-5.48,15.28-.74,30.55-1.68,45.81-2.74,4.23-.29,5.48,1.33,5.44,5.39-.15,17.98-.16,35.96,0,53.94.04,4.12-1.43,5.47-5.49,5.55-14.47.27-28.89,1.44-43.3,2.81-7.29.7-7.52.45-7.53-7.03-.01-8.49,0-16.98,0-25.47Z"/>
      <g>
        <path class="cls-1" d="M892.19,112.31c-.65-.37-1.29-.75-1.94-1.12-3.78-2.15-4.45-1.04-4.43,2.7,0,.71,0,1.43,0,2.14,2.07-1.29,4.2-2.52,6.37-3.72Z"/>
        <path class="cls-1" d="M324.31,377.93c0-14.79,3.01-28.71,8.94-41.52-20.52,7.27-40.47,16.11-59.89,26.47-9.69,5.17-19.67,9.81-29.53,14.65-1.86.92-3.64,2.38-5.58-.33-10-13.9-23.22-24.71-35.39-36.53-7.76-7.54-15.82-14.78-22.26-23.58-2.15-2.93-1.83-4.54,1.5-6.58,18.51-11.3,37.85-21.01,57.37-30.36,36.29-17.37,73.6-30.76,111.9-40.12l-18.82-61.85c-59.09,14.57-115.38,37.22-168.77,68.09-28.71,16.6-55.79,35.72-82.77,54.96-2.39,1.7-2.06,3.01-.53,4.78,3.16,3.65,6.09,7.54,9.53,10.9,36.18,35.42,70.41,72.74,106.14,108.6,7.29,7.31,14.47,14.74,21.54,22.25,3.42,3.63,6.43,7.63,9.73,11.37,2.44,2.78,5,2.95,8.31.85,10.97-6.95,22.24-13.43,33.2-20.39,19.23-12.23,39.17-22.89,59.87-31.85-2.98-9.52-4.49-19.53-4.49-29.84Z"/>
        <path class="cls-1" d="M735.45,473.69h-37.39c-11.07,0-21.19-5.36-27.48-13.97-5.86,8.04-15.08,13.24-25.29,13.89-4.72,4.92-9.44,9.84-14.14,14.78-3.07,3.22-5.77,3.73-9.6,1.85-7.77-3.81-15.5-7.77-23.51-11-4.97-2-9.94-3.84-14.92-5.55h-19.42c-5.24,0-10.3-1.21-14.84-3.41-4.49,2.19-9.53,3.41-14.86,3.41h-34.16c-10.22,0-19.37-4.51-25.61-11.65-4.03,2.41-8.28,4.54-12.75,6.39-11.92,4.93-24.76,7.44-38.17,7.44-8.56,0-16.9-1.01-24.93-3-22.99,7.16-43.94,18.67-64.95,30.1-5.67,3.09-5.7,3.04-2.67,8.52.24.44.51.86.75,1.3,8.69,15.98,20.98,29.64,29.28,45.86,1.09,2.12,2.76,1.63,4.26.9,4.19-2.02,8.53-3.86,12.41-6.39,37.79-24.62,80.26-30.09,123.91-29.8,27.32.18,53.22,7.58,78.29,18.23,18.52,7.86,35.3,18.65,51.86,29.83,4.25,2.87,7.1,2.45,10.73-1.15,20.45-20.3,40.71-40.77,60.65-61.58,11.2-11.7,22.42-23.38,33.64-35.06-.36.01-.72.04-1.08.04Z"/>
      </g>
      <path class="cls-1" d="M749.97,79.05c0,9.82-.1,19.64.05,29.46.06,3.81-1.11,4.65-4.69,3.25-15.51-6.03-31.27-11.36-47.24-16.03-3.72-1.09-4.92-3.01-4.89-6.76.14-18.81.16-37.62,0-56.42-.04-4.32,1.35-5.07,5.28-3.96,15.69,4.41,31.31,9.08,46.81,14.12,3.68,1.2,4.85,3.16,4.77,6.89-.21,9.82-.07,19.64-.07,29.46Z"/>
    </g>
  </g>
</svg>